# Blender 3.5.0
# www.blender.org
mtllib FL.mtl
o Cube.001
v 0.403659 0.140596 -0.118742
v 0.381653 0.647944 -0.098384
v 0.403659 0.140596 -0.137687
v 0.381653 0.647944 -0.158044
v 0.423586 0.140596 -0.118742
v 0.445592 0.647944 -0.098384
v 0.423586 0.140596 -0.137687
v 0.445592 0.647944 -0.158044
v 0.381653 0.394270 -0.098384
v 0.381653 0.394270 -0.158044
v 0.445592 0.394270 -0.158044
v 0.445592 0.394270 -0.098384
v 0.381653 0.267433 -0.158044
v 0.445592 0.267433 -0.158044
v 0.445592 0.267433 -0.098384
v 0.381653 0.267433 -0.098384
v 0.381653 0.204015 -0.158044
v 0.445592 0.204015 -0.158044
v 0.445592 0.204015 -0.098384
v 0.381653 0.204015 -0.098384
vn -1.0000 -0.0000 -0.0000
vn -0.0000 -0.0000 -1.0000
vn 1.0000 -0.0000 -0.0000
vn -0.0000 -0.0000 1.0000
vn -0.0000 -1.0000 -0.0000
vn -0.0000 1.0000 -0.0000
vn -0.0000 -0.3056 0.9521
vn 0.9447 -0.3278 -0.0000
vn -0.0000 -0.3056 -0.9521
vn -0.9447 -0.3278 -0.0000
vt 0.125000 0.750000
vt 0.375000 1.000000
vt 0.375000 0.000000
vt 0.625000 0.000000
vt 0.625000 1.000000
vt 0.875000 0.750000
vt 0.125000 0.500000
vt 0.375000 0.250000
vt 0.625000 0.250000
vt 0.875000 0.500000
vt 0.375000 0.750000
vt 0.625000 0.750000
vt 0.375000 0.500000
vt 0.625000 0.500000
vt 0.500000 1.000000
vt 0.500000 0.000000
vt 0.500000 0.250000
vt 0.500000 0.500000
vt 0.500000 0.750000
vt 0.437500 0.250000
vt 0.437500 0.500000
vt 0.437500 0.750000
vt 0.437500 0.000000
vt 0.437500 1.000000
vt 0.406250 0.250000
vt 0.406250 0.500000
vt 0.406250 0.750000
vt 0.406250 1.000000
vt 0.406250 0.000000
s 0
usemtl <face.001
f 9/16/1 2/4/1 4/9/1 10/17/1
f 10/17/2 4/9/2 8/14/2 11/18/2
f 11/18/3 8/14/3 6/12/3 12/19/3
f 12/19/4 6/12/4 2/5/4 9/15/4
f 3/7/5 7/13/5 5/11/5 1/1/5
f 8/14/6 4/10/6 2/6/6 6/12/6
f 15/22/4 12/19/4 9/15/4 16/24/4
f 14/21/3 11/18/3 12/19/3 15/22/3
f 13/20/2 10/17/2 11/18/2 14/21/2
f 16/23/1 9/16/1 10/17/1 13/20/1
f 20/29/1 16/23/1 13/20/1 17/25/1
f 17/25/2 13/20/2 14/21/2 18/26/2
f 18/26/3 14/21/3 15/22/3 19/27/3
f 19/27/4 15/22/4 16/24/4 20/28/4
f 5/11/7 19/27/7 20/28/7 1/2/7
f 7/13/8 18/26/8 19/27/8 5/11/8
f 3/8/9 17/25/9 18/26/9 7/13/9
f 1/3/10 20/29/10 17/25/10 3/8/10
o Cube.002
v 0.407168 0.140596 -0.424468
v 0.383886 0.647944 -0.404659
v 0.407168 0.140596 -0.441607
v 0.383886 0.647944 -0.461415
v 0.424543 0.140596 -0.424468
v 0.447825 0.647944 -0.404659
v 0.424543 0.140596 -0.441607
v 0.447825 0.647944 -0.461415
v 0.383886 0.394270 -0.404659
v 0.383886 0.394270 -0.461415
v 0.447825 0.394270 -0.461415
v 0.447825 0.394270 -0.404659
v 0.383886 0.267433 -0.461415
v 0.447825 0.267433 -0.461415
v 0.447825 0.267433 -0.404659
v 0.383886 0.267433 -0.404659
v 0.383886 0.204015 -0.461415
v 0.447825 0.204015 -0.461415
v 0.447825 0.204015 -0.404659
v 0.383886 0.204015 -0.404659
vn -1.0000 -0.0000 -0.0000
vn -0.0000 -0.0000 -1.0000
vn 1.0000 -0.0000 -0.0000
vn -0.0000 -0.0000 1.0000
vn -0.0000 -1.0000 -0.0000
vn -0.0000 1.0000 -0.0000
vn -0.0000 -0.2981 0.9545
vn 0.9387 -0.3446 -0.0000
vn -0.0000 -0.2981 -0.9545
vn -0.9387 -0.3446 -0.0000
vt 0.125000 0.750000
vt 0.375000 1.000000
vt 0.375000 0.000000
vt 0.625000 0.000000
vt 0.625000 1.000000
vt 0.875000 0.750000
vt 0.125000 0.500000
vt 0.375000 0.250000
vt 0.625000 0.250000
vt 0.875000 0.500000
vt 0.375000 0.750000
vt 0.625000 0.750000
vt 0.375000 0.500000
vt 0.625000 0.500000
vt 0.500000 1.000000
vt 0.500000 0.000000
vt 0.500000 0.250000
vt 0.500000 0.500000
vt 0.500000 0.750000
vt 0.437500 0.250000
vt 0.437500 0.500000
vt 0.437500 0.750000
vt 0.437500 0.000000
vt 0.437500 1.000000
vt 0.406250 0.250000
vt 0.406250 0.500000
vt 0.406250 0.750000
vt 0.406250 1.000000
vt 0.406250 0.000000
s 0
usemtl <face.001
f 29/45/11 22/33/11 24/38/11 30/46/11
f 30/46/12 24/38/12 28/43/12 31/47/12
f 31/47/13 28/43/13 26/41/13 32/48/13
f 32/48/14 26/41/14 22/34/14 29/44/14
f 23/36/15 27/42/15 25/40/15 21/30/15
f 28/43/16 24/39/16 22/35/16 26/41/16
f 35/51/14 32/48/14 29/44/14 36/53/14
f 34/50/13 31/47/13 32/48/13 35/51/13
f 33/49/12 30/46/12 31/47/12 34/50/12
f 36/52/11 29/45/11 30/46/11 33/49/11
f 40/58/11 36/52/11 33/49/11 37/54/11
f 37/54/12 33/49/12 34/50/12 38/55/12
f 38/55/13 34/50/13 35/51/13 39/56/13
f 39/56/14 35/51/14 36/53/14 40/57/14
f 25/40/17 39/56/17 40/57/17 21/31/17
f 27/42/18 38/55/18 39/56/18 25/40/18
f 23/37/19 37/54/19 38/55/19 27/42/19
f 21/32/20 40/58/20 37/54/20 23/37/20
o Cube.003
v -0.521204 0.140596 -0.144163
v -0.542840 0.647944 -0.128756
v -0.521204 0.140596 -0.165776
v -0.542840 0.647944 -0.185513
v -0.500537 0.140596 -0.144163
v -0.478901 0.647944 -0.128756
v -0.500537 0.140596 -0.165776
v -0.478901 0.647944 -0.185513
v -0.542840 0.394270 -0.128756
v -0.542840 0.394270 -0.185513
v -0.478901 0.394270 -0.185513
v -0.478901 0.394270 -0.128756
v -0.542840 0.267433 -0.185513
v -0.478901 0.267433 -0.185513
v -0.478901 0.267433 -0.128756
v -0.542840 0.267433 -0.128756
v -0.542840 0.204015 -0.185513
v -0.478901 0.204015 -0.185513
v -0.478901 0.204015 -0.133086
v -0.542840 0.204015 -0.133086
vn -1.0000 -0.0000 -0.0000
vn -0.0000 -0.0000 -1.0000
vn 1.0000 -0.0000 -0.0000
vn -0.0000 -0.0000 1.0000
vn -0.0000 -1.0000 -0.0000
vn -0.0000 1.0000 -0.0000
vn -0.0000 -0.0681 0.9977
vn -0.0000 -0.1721 0.9851
vn 0.9464 -0.3229 -0.0000
vn -0.0000 -0.2972 -0.9548
vn -0.9464 -0.3229 -0.0000
vt 0.125000 0.750000
vt 0.375000 1.000000
vt 0.375000 0.000000
vt 0.625000 0.000000
vt 0.625000 1.000000
vt 0.875000 0.750000
vt 0.125000 0.500000
vt 0.375000 0.250000
vt 0.625000 0.250000
vt 0.875000 0.500000
vt 0.375000 0.750000
vt 0.625000 0.750000
vt 0.375000 0.500000
vt 0.625000 0.500000
vt 0.500000 1.000000
vt 0.500000 0.000000
vt 0.500000 0.250000
vt 0.500000 0.500000
vt 0.500000 0.750000
vt 0.437500 0.250000
vt 0.437500 0.500000
vt 0.437500 0.750000
vt 0.437500 0.000000
vt 0.437500 1.000000
vt 0.406250 0.250000
vt 0.406250 0.500000
vt 0.406250 0.750000
vt 0.406250 1.000000
vt 0.406250 0.000000
s 0
usemtl <face.001
f 49/74/21 42/62/21 44/67/21 50/75/21
f 50/75/22 44/67/22 48/72/22 51/76/22
f 51/76/23 48/72/23 46/70/23 52/77/23
f 52/77/24 46/70/24 42/63/24 49/73/24
f 43/65/25 47/71/25 45/69/25 41/59/25
f 48/72/26 44/68/26 42/64/26 46/70/26
f 55/80/24 52/77/24 49/73/24 56/82/24
f 54/79/23 51/76/23 52/77/23 55/80/23
f 53/78/22 50/75/22 51/76/22 54/79/22
f 56/81/21 49/74/21 50/75/21 53/78/21
f 60/87/21 56/81/21 53/78/21 57/83/21
f 57/83/22 53/78/22 54/79/22 58/84/22
f 58/84/23 54/79/23 55/80/23 59/85/23
f 59/85/27 55/80/27 56/82/27 60/86/27
f 45/69/28 59/85/28 60/86/28 41/60/28
f 47/71/29 58/84/29 59/85/29 45/69/29
f 43/66/30 57/83/30 58/84/30 47/71/30
f 41/61/31 60/87/31 57/83/31 43/66/31
o Cube.004
v -0.524350 0.140596 -0.427224
v -0.542789 0.647944 -0.410687
v -0.524350 0.140596 -0.450906
v -0.542789 0.647944 -0.467443
v -0.497289 0.140596 -0.427224
v -0.478850 0.647944 -0.410687
v -0.497289 0.140596 -0.450906
v -0.478850 0.647944 -0.467443
v -0.542789 0.394270 -0.410687
v -0.542789 0.394270 -0.467443
v -0.478850 0.394270 -0.467443
v -0.478850 0.394270 -0.410687
v -0.542789 0.267433 -0.467443
v -0.478850 0.267433 -0.467443
v -0.478850 0.267433 -0.410687
v -0.542789 0.267433 -0.410687
v -0.542789 0.204015 -0.467443
v -0.478850 0.204015 -0.467443
v -0.478850 0.204015 -0.410687
v -0.542789 0.204015 -0.410687
vn -1.0000 -0.0000 -0.0000
vn -0.0000 -0.0000 -1.0000
vn 1.0000 -0.0000 -0.0000
vn -0.0000 -0.0000 1.0000
vn -0.5903 -0.4696 -0.6566
vn 0.5903 -0.4696 -0.6566
vn 0.5903 -0.4696 0.6566
vn -0.5903 -0.4696 0.6566
vn -0.0000 1.0000 -0.0000
vn -0.0000 -0.2523 0.9676
vn 0.9602 -0.2792 -0.0000
vn -0.0000 -0.2523 -0.9676
vn -0.9602 -0.2792 -0.0000
vt 0.125000 0.750000
vt 0.375000 1.000000
vt 0.375000 0.000000
vt 0.625000 0.000000
vt 0.625000 1.000000
vt 0.875000 0.750000
vt 0.125000 0.500000
vt 0.375000 0.250000
vt 0.625000 0.250000
vt 0.875000 0.500000
vt 0.375000 0.750000
vt 0.625000 0.750000
vt 0.375000 0.500000
vt 0.625000 0.500000
vt 0.500000 1.000000
vt 0.500000 0.000000
vt 0.500000 0.250000
vt 0.500000 0.500000
vt 0.500000 0.750000
vt 0.437500 0.250000
vt 0.437500 0.500000
vt 0.437500 0.750000
vt 0.437500 0.000000
vt 0.437500 1.000000
vt 0.406250 0.250000
vt 0.406250 0.500000
vt 0.406250 0.750000
vt 0.406250 1.000000
vt 0.406250 0.000000
s 1
usemtl <face.001
f 69/103/32 62/91/32 64/96/32 70/104/32
f 70/104/33 64/96/33 68/101/33 71/105/33
f 71/105/34 68/101/34 66/99/34 72/106/34
f 72/106/35 66/99/35 62/92/35 69/102/35
f 63/94/36 67/100/37 65/98/38 61/88/39
f 68/101/40 64/97/40 62/93/40 66/99/40
f 75/109/35 72/106/35 69/102/35 76/111/35
f 74/108/34 71/105/34 72/106/34 75/109/34
f 73/107/33 70/104/33 71/105/33 74/108/33
f 76/110/32 69/103/32 70/104/32 73/107/32
f 80/116/32 76/110/32 73/107/32 77/112/32
f 77/112/33 73/107/33 74/108/33 78/113/33
f 78/113/34 74/108/34 75/109/34 79/114/34
f 79/114/35 75/109/35 76/111/35 80/115/35
f 65/98/38 79/114/41 80/115/41 61/89/39
f 67/100/37 78/113/42 79/114/42 65/98/38
f 63/95/36 77/112/43 78/113/43 67/100/37
f 61/90/39 80/116/44 77/112/44 63/95/36
